<?xml version="1.0" encoding="utf-8"?>
<!-- Generator: Adobe Illustrator 27.5.0, SVG Export Plug-In . SVG Version: 6.00 Build 0)  -->
<svg version="1.1" id="Capa_1" xmlns="http://www.w3.org/2000/svg" xmlns:xlink="http://www.w3.org/1999/xlink" x="0px" y="0px"
	 viewBox="0 0 2122 2122" style="enable-background:new 0 0 2122 2122;" xml:space="preserve">
<g>
	<path style="fill:#009FE3;" d="M435.633,1789.51c7.611,82.066,74.784,146.228,182.76,146.228c75.551,0,1068.036,0,1068.036,0
		v-34.407c-5.466,0-13.203,0-22.938,0v-36.885V1646.15c9.738,0,17.47,0,22.938,0v-34.406V186.739H638.092
		c0,0-203.201-25.805-203.201,166.299"/>
	<path style="fill:#0082CA;" d="M484.168,1762.305c0.27-3.043,0.642-6.056,1.128-9.034c0.087-0.536,0.195-1.064,0.289-1.598
		c0.499-2.819,1.085-5.609,1.776-8.361c0.082-0.327,0.148-0.66,0.233-0.986c0.761-2.923,1.656-5.796,2.634-8.634
		c0.206-0.599,0.417-1.195,0.632-1.79c1.023-2.819,2.129-5.602,3.365-8.327c0.144-0.318,0.306-0.627,0.453-0.943
		c1.19-2.563,2.482-5.076,3.86-7.548c0.239-0.428,0.463-0.86,0.707-1.285c1.488-2.591,3.089-5.122,4.784-7.602
		c0.333-0.488,0.678-0.968,1.019-1.451c3.575-5.063,7.585-9.878,12.02-14.416c0.401-0.41,0.794-0.822,1.201-1.227
		c1.182-1.175,2.402-2.325,3.641-3.46c0,0,0,0,0,0c1.072-0.982,2.151-1.959,3.265-2.91c0.386-0.33,0.787-0.647,1.178-0.972
		c2.378-1.981,4.837-3.902,7.404-5.742c0.195-0.14,0.379-0.288,0.575-0.427c2.69-1.906,5.506-3.713,8.399-5.458
		c0.536-0.323,1.074-0.645,1.616-0.962c2.922-1.708,5.923-3.348,9.044-4.886c0.31-0.153,0.633-0.292,0.945-0.444
		c3.002-1.454,6.099-2.821,9.28-4.111c0.45-0.182,0.888-0.375,1.341-0.554c3.333-1.316,6.771-2.53,10.295-3.66
		c0.636-0.204,1.279-0.399,1.921-0.596c3.647-1.123,7.363-2.174,11.208-3.091c0,0,0,0,0,0c15.474-3.69,32.534-5.682,51.104-5.682
		c99.568,0,1041.475,0,1046.943,0v-34.406h-192.1c-269.392-141.779-508.262-341.717-589.972-649.702
		c-26.844-97.982-41.564-197.305-45.411-296.478h-84.29V338.701l0,0h109.983h0.01c8.928-46.019,20.005-91.63,33.113-136.676
		c1.484-5.099,2.952-10.202,4.487-15.286l0,0H638.092c0,0-0.13-0.016-0.323-0.038c-0.11-0.013-0.235-0.027-0.406-0.045
		c-0.041-0.005-0.083-0.009-0.127-0.014c-0.219-0.023-0.48-0.051-0.78-0.081c-0.059-0.006-0.112-0.011-0.174-0.017
		c-0.358-0.035-0.76-0.073-1.218-0.115c-0.005-0.001-0.01-0.001-0.015-0.001c-1.395-0.125-3.279-0.271-5.527-0.406
		c-0.001,0-0.002-0.001-0.003-0.001c0.001,0,0.001,0,0.002,0c-7.097-0.426-18.169-0.728-31.519,0.09c0,0,0,0,0,0
		c-0.379,0.023-0.732,0.034-1.115,0.059v0.014c-59.368,3.872-161.997,30.283-161.997,166.854c0,9.678,0,33.344,0,67.857
		c0,38.39,0,90.242,0,151.389c0,8.982,0,18.156,0,27.525c0,9.009,0,18.182,0,27.526c0,383.127,0,1037.005,0,1146.406
		c0,5.322,0.26,10.579,0.742,15.77c7.611,82.066,74.784,146.228,182.76,146.228c75.551,0,1068.036,0,1068.036,0v-34.407
		c-5.466,0-13.203,0-22.938,0c0,0-958.481,0-1024.005,0c-56.007,0-98.318-18.074-124.621-46.432
		c-1.461-1.575-2.874-3.182-4.236-4.82c-2.724-3.275-5.248-6.672-7.571-10.179c-2.582-3.899-4.887-7.947-6.964-12.105
		c-0.001-0.002-0.001-0.003-0.002-0.005c-0.834-1.669-1.636-3.352-2.388-5.059c-0.153-0.345-0.284-0.699-0.434-1.045
		c-4.892-11.42-7.954-23.658-9.097-36.445l0,0c-0.001-0.003,0-0.006-0.001-0.009c-0.276-3.089-0.434-6.211-0.485-9.359
		c0-0.001,0-0.001,0-0.003c-0.011-0.711-0.053-1.415-0.053-2.13c0-3.209,0.157-6.379,0.39-9.528
		C484.07,1763.576,484.112,1762.938,484.168,1762.305z"/>
	<path style="fill:#FFFFFF;" d="M1663.491,1678.817v-11.431h0v-21.236c0,0-924.437,0-1024.005,0c-18.57,0-35.63,1.992-51.104,5.682
		c0,0,0,0,0,0c-3.844,0.916-7.561,1.968-11.208,3.091c-0.642,0.198-1.285,0.392-1.921,0.596c-3.523,1.129-6.963,2.344-10.295,3.66
		c-0.453,0.179-0.891,0.372-1.341,0.554c-3.181,1.29-6.279,2.658-9.28,4.111c-0.312,0.151-0.635,0.291-0.945,0.444
		c-3.119,1.538-6.123,3.178-9.044,4.886c-0.542,0.317-1.08,0.639-1.616,0.962c-2.893,1.744-5.709,3.552-8.399,5.458
		c-0.196,0.139-0.38,0.287-0.575,0.427c-2.567,1.84-5.026,3.762-7.404,5.742c-0.391,0.325-0.792,0.643-1.178,0.972
		c-1.115,0.951-2.194,1.928-3.265,2.91c0,0,0,0,0,0c-1.24,1.135-2.46,2.286-3.641,3.46c-0.407,0.405-0.801,0.818-1.201,1.227
		c-0.977,1-1.87,2.053-2.806,3.081c-0.373,0.409-0.806,0.777-1.172,1.191c0.028,0.001,0.056,0.002,0.084,0.004
		c-0.17,0.192-0.326,0.392-0.495,0.584c-1.056,1.206-2.1,2.417-3.1,3.657c-1.577,1.926-3.106,3.882-4.53,5.899
		c-0.341,0.483-0.685,0.963-1.019,1.451c-1.695,2.48-3.296,5.011-4.784,7.602c-0.244,0.425-0.468,0.857-0.707,1.285
		c-1.378,2.471-2.67,4.986-3.86,7.548c-0.147,0.316-0.309,0.625-0.453,0.943c-1.236,2.725-2.342,5.509-3.365,8.327
		c-0.216,0.595-0.426,1.19-0.632,1.79c-0.977,2.839-1.872,5.711-2.634,8.634c-0.085,0.326-0.151,0.659-0.233,0.986
		c-0.022,0.087-0.034,0.177-0.056,0.264c-0.009,0.033-0.021,0.064-0.029,0.098c0.003,0,0.005,0,0.008,0
		c-0.652,2.636-1.222,5.302-1.699,7.999c-0.094,0.534-0.202,1.062-0.289,1.598c-0.486,2.977-0.858,5.991-1.128,9.034
		c-0.056,0.634-0.098,1.271-0.145,1.907c-0.232,3.149-0.39,6.32-0.39,9.528c0,0.714,0.042,1.418,0.053,2.13c0,0.001,0,0.002,0,0.003
		c0.051,3.149,0.21,6.27,0.485,9.359c0.001,0.003,0,0.006,0.001,0.009l0,0c1.006,11.252,3.585,22.043,7.501,32.262
		c-0.047-0.005-0.094-0.01-0.141-0.016c0.542,1.416,1.135,2.81,1.736,4.2c0.15,0.346,0.281,0.7,0.434,1.045
		c0.757,1.704,1.555,3.391,2.388,5.059c0.001,0.002,0.001,0.004,0.002,0.005c2.077,4.158,4.382,8.206,6.964,12.105
		c2.322,3.507,4.847,6.904,7.571,10.179c1.362,1.637,2.774,3.245,4.236,4.82c26.303,28.357,68.614,46.432,124.621,46.432
		c65.524,0,1024.005,0,1024.005,0v-36.885h0v-5.212h0v-10.13h0v-24.6h0v-11.266h0v-16.594h0v-11.332h0v-23.768h0v-7.606h0v-36.749h0
		v-12.01h0L1663.491,1678.817L1663.491,1678.817z"/>
	<g>
		<path style="fill:#BFD1ED;" d="M709.221,1864.446c-44.764,0-80.745-11.572-106.83-30.686c29.431,1.034,58.881,1.617,88.323,1.52
			c12.562-0.042,25.127-0.302,37.685-0.633c12.667-0.333,25.073-1.463,37.674-2.757c0.89-0.091,0.927-1.379,0-1.414
			c-11.269-0.418-22.431-1.017-33.708-0.943c-10.578,0.069-21.156,0.058-31.733-0.033c-21.822-0.187-43.636-0.508-65.447-1.255
			c-14.07-0.482-28.126-1.206-42.174-2.038c-24.697-21.957-38.318-51.666-39.523-84.565c0.513-0.02,1.026-0.026,1.539-0.047
			c36.121-1.479,72.015-4.776,107.916-8.909c19.902-2.292,39.612-4.756,59.251-8.744l-0.104-0.772
			c-35.573,2.216-70.989,5.855-106.613,7.572c-20.667,0.996-41.34,1.781-62.019,2.265c0.377-12.792,2.605-25.114,6.652-36.691
			c10.87,0.204,21.766,0.609,32.413-1.522c1.524-0.304,1.473-2.691,0-3.03c-9.632-2.221-19.537-2.505-29.43-3.036
			c5.874-13.63,14.331-26.096,25.288-36.897c0,0,0,0,0,0c-3.844,0.916-7.561,1.968-11.208,3.091
			c-0.642,0.198-1.285,0.392-1.921,0.596c-3.523,1.129-6.963,2.344-10.295,3.66c-0.453,0.179-0.891,0.372-1.341,0.554
			c-3.181,1.29-6.279,2.658-9.28,4.111c-0.312,0.151-0.635,0.291-0.945,0.444c-3.119,1.538-6.123,3.178-9.044,4.886
			c-0.542,0.317-1.08,0.639-1.616,0.962c-2.893,1.744-5.709,3.552-8.399,5.458c-0.196,0.139-0.38,0.287-0.575,0.427
			c-2.567,1.84-5.026,3.762-7.404,5.742c-0.391,0.325-0.792,0.643-1.178,0.972c-1.102,0.94-2.106,1.949-3.165,2.92
			c-0.034-0.003-0.066-0.007-0.1-0.01c0,0,0,0,0,0c-0.386,0.354-0.71,0.75-1.091,1.108c-0.841,0.791-1.737,1.544-2.551,2.353
			c-0.407,0.405-0.801,0.818-1.201,1.227c-0.977,1-1.87,2.053-2.806,3.081c-0.373,0.409-0.806,0.777-1.172,1.191
			c0.028,0.001,0.056,0.002,0.084,0.004c-2.897,3.266-5.644,6.626-8.125,10.14c-0.341,0.483-0.685,0.963-1.019,1.451
			c-1.695,2.48-3.296,5.011-4.784,7.602c-0.244,0.425-0.468,0.857-0.707,1.285c-1.378,2.471-2.67,4.986-3.86,7.548
			c-0.147,0.316-0.309,0.625-0.453,0.943c-1.236,2.725-2.342,5.509-3.365,8.327c-0.216,0.595-0.426,1.19-0.632,1.79
			c-0.977,2.839-1.872,5.711-2.634,8.634c-0.085,0.326-0.151,0.659-0.233,0.986c-0.021,0.086-0.034,0.176-0.055,0.263
			c-0.009,0.033-0.022,0.065-0.03,0.099c0.003,0,0.005,0,0.008,0c-0.654,2.636-1.222,5.302-1.699,7.999
			c-0.094,0.534-0.202,1.062-0.289,1.598c-0.486,2.977-0.858,5.991-1.128,9.034c-0.056,0.634-0.098,1.271-0.145,1.907
			c-0.232,3.149-0.39,6.32-0.39,9.528c0,0.714,0.042,1.418,0.053,2.13c0,0.001,0,0.002,0,0.003c0.051,3.149,0.21,6.27,0.485,9.359
			c0.001,0.003,0,0.006,0.001,0.009l0,0c1.006,11.252,3.585,22.043,7.501,32.262c-0.047-0.005-0.094-0.01-0.141-0.016
			c0.542,1.416,1.135,2.81,1.736,4.2c0.15,0.346,0.281,0.7,0.434,1.045c0.757,1.704,1.555,3.391,2.388,5.059
			c0.001,0.002,0.001,0.004,0.002,0.005c2.077,4.158,4.382,8.206,6.964,12.105c2.322,3.507,4.847,6.904,7.571,10.179
			c1.362,1.637,2.774,3.245,4.236,4.82c26.303,28.357,68.614,46.432,124.621,46.432c65.524,0,1024.005,0,1024.005,0v-36.885h0
			C1441.72,1864.446,763.953,1864.446,709.221,1864.446z"/>
		<path style="fill:#BFD1ED;" d="M1638.501,1705.202c-37.115,0.019-74.231-0.005-111.346,0.077
			c-73.253,0.161-146.547,0.929-219.772-1.528c-20.592-0.691-41.171-1.65-61.737-2.883c-20.899-1.253-41.704-3.135-62.632-3.701
			l-0.053,0.307c35.579,6.618,72.218,8.245,108.313,10.24c36.847,2.035,73.743,3.223,110.632,4.197
			c73.701,1.944,147.427,3.11,221.14,4.472c13.471,0.25,26.957,0.553,40.447,0.804h0v-12.01h0
			C1655.158,1705.18,1646.827,1705.198,1638.501,1705.202z"/>
		<path style="fill:#BFD1ED;" d="M1621.243,1754.031c-43.745-0.14-87.489-0.763-131.22-1.867c-24.672-0.623-49.43-0.96-74.092-0.111
			c-1.034,0.035-0.984,1.457,0,1.571c43.469,5.039,87.466,5.595,131.182,6.558c38.787,0.854,77.582,1.265,116.378,1.36h0v-7.606h0
			C1649.408,1753.991,1635.326,1754.077,1621.243,1754.031z"/>
		<path style="fill:#BFD1ED;" d="M1604.261,1812.165c-70.802-0.88-141.606-1.157-212.411-0.546
			c-39.766,0.343-79.495,1.152-119.242,2.419c-0.907,0.029-0.913,1.402,0,1.414c70.478,0.917,140.961,1.742,211.429,3.316
			c59.841,1.337,119.645,3.531,179.455,5.736h0v-11.266h0C1643.751,1812.783,1624.01,1812.411,1604.261,1812.165z"/>
		<path style="fill:#BFD1ED;" d="M1661.612,1849.174c-50.002,1.647-100.076,2.271-150.054,4.469
			c-28.674,1.261-57.342,1.758-86.041,2.129c-0.911,0.012-0.911,1.393,0,1.414c50.692,1.122,101.363,2.507,152.069,2.688
			c28.633,0.102,57.27-0.18,85.905-0.64h0v-10.13h0C1662.864,1849.125,1662.238,1849.154,1661.612,1849.174z"/>
		<path style="fill:#BFD1ED;" d="M1663.491,1667.386c-6.361,0.14-12.722,0.293-19.084,0.426
			c-48.73,1.016-97.489,1.434-146.229,1.271c-28.033-0.094-56.068-1.439-84.093-0.825c-1.03,0.022-0.988,1.469,0,1.571
			c24.61,2.542,49.367,3.17,74.08,4.197c24.702,1.027,49.397,2.134,74.108,2.934c33.708,1.091,67.469,1.759,101.218,1.858h0
			L1663.491,1667.386z"/>
		<path style="fill:#BFD1ED;" d="M1575.292,1784.651c-20.602-0.517-41.084-1.018-61.694-0.569c-0.594,0.013-0.779,0.967-0.147,1.08
			c35.549,6.34,71.65,8.258,107.673,10.054c14.102,0.703,28.231,1.137,42.366,1.427h0v-11.332h0
			C1634.092,1785.539,1604.672,1785.389,1575.292,1784.651z"/>
		<path style="fill:#BFD1ED;" d="M666.81,1761.119c-10.403,0.561-20.764,1.239-31.128,2.315
			c-10.099,1.048-20.785,1.119-30.395,4.516c-0.94,0.333-0.997,1.658,0,1.97c8.51,2.657,17.523,2.541,26.379,3.176
			c9.37,0.672,18.724,1.256,28.115,1.518c18.745,0.521,37.482,0.247,56.233,0.18c37.154-0.133,74.31-2.47,111.469-3.125
			c74.65-1.317,149.29-2.078,223.952-1.642c41.857,0.244,83.746,1.013,125.6,0.416c1.519-0.021,1.516-2.308,0-2.356
			c-74.274-2.343-148.708-2.098-223.014-3.128c-74.66-1.035-149.304-3.466-223.949-4.883
			C709.076,1759.677,687.779,1759.987,666.81,1761.119z"/>
		<path style="fill:#BFD1ED;" d="M1010.741,1729.376c42.025,4.46,84.187,6.388,126.337,9.219
			c41.772,2.805,83.556,5.342,125.415,6.389c23.95,0.599,47.46-0.826,71.261-3.138c0.819-0.08,0.795-1.15,0-1.257
			c-21.024-2.813-41.974-5.533-63.232-6.124c-21.076-0.585-42.138-1.084-63.22-1.413c-41.805-0.653-83.595-1.335-125.383-2.724
			c-23.731-0.789-47.432-1.53-71.178-1.738C1010.225,1728.586,1010.249,1729.324,1010.741,1729.376z"/>
		<path style="fill:#BFD1ED;" d="M672.439,1671.616c22.234,1.772,44.738,1.496,67.034,2.161c22.343,0.667,44.684,1.407,67.022,2.223
			c43.993,1.606,87.996,2.775,131.993,4.289c25.312,0.871,50.637,1.064,75.958,1.615c0.718,0.015,0.694-1.037,0-1.1
			c-88.527-8.034-177.122-12.493-265.97-15.054c-25.256-0.728-50.784-2.404-76.038-1.518
			C667.642,1664.4,667.738,1671.241,672.439,1671.616z"/>
		<path style="fill:#BFD1ED;" d="M887.928,1837.846c11.046,1.649,22.475,0.939,33.622,0.99c11.725,0.053,23.447,0.014,35.172-0.032
			c23.13-0.091,46.215-0.036,69.339,0.487c46.554,1.054,93.125,0.698,139.683,1.64c12.691,0.257,25.501,0.795,38.187,0.137
			c6.738-0.349,13.347-2.058,20.098-2.462c5.963-0.357,11.644-0.583,16.793-3.904c0.901-0.581,0.923-1.866,0-2.442
			c-4.291-2.678-8.794-3.268-13.778-3.523c-6.144-0.315-12.139-0.933-18.234-1.765c-11.394-1.556-23.556-0.494-35.026-0.086
			c-23.113,0.823-46.216,1.645-69.339,2.114c-46.569,0.945-93.111,2.885-139.683,3.416c-12.73,0.144-25.459,0.245-38.187,0.498
			c-12.773,0.254-26.02-0.489-38.646,1.598C886.29,1834.783,886.265,1837.597,887.928,1837.846z"/>
		<path style="fill:#BFD1ED;" d="M1288.634,1772.864c-7.279-0.098-14.465,0.976-21.714,0.979c-0.773,0-0.992,1.237-0.189,1.388
			c7.052,1.329,13.818,3.571,20.964,4.568c6.877,0.959,13.78,1.611,20.705,2.083c14.172,0.966,28.361,1.676,42.557,2.13
			c14.165,0.453,28.421,0.945,42.592,0.575c7.273-0.19,14.549-0.711,21.787-1.424c6.721-0.662,13.985-0.453,20.526-2.149
			c2.469-0.64,2.767-4.865,0-5.302c-6.689-1.057-13.754-0.319-20.526-0.554c-6.931-0.241-13.861-0.375-20.797-0.422
			c-14.196-0.096-28.391,0.352-42.592,0.176c-13.863-0.172-27.722-0.59-41.57-1.252
			C1303.131,1773.314,1295.89,1772.962,1288.634,1772.864z"/>
		<path style="fill:#BFD1ED;" d="M778.192,1722.135c7.637-0.593,15.252-1.149,22.912-1.371c15.694-0.456,31.423-0.216,47.118,0.105
			c31.126,0.638,62.013,1.759,92.582-5.299c1.125-0.26,0.876-2.024-0.271-2.006c-31.391,0.502-62.858-0.761-94.239-1.631
			c-15.392-0.427-30.761-0.664-46.148,0.1c-7.63,0.379-15.331,0.824-22.906,1.854c-7.967,1.084-15.522,3.647-23.129,6.151
			c-1.52,0.501-1.365,3.047,0.397,2.932C762.4,1722.457,770.304,1722.748,778.192,1722.135z"/>
		<path style="fill:#BFD1ED;" d="M1102.705,1668.332c39.428,5.046,79.133,6.59,118.762,9.339
			c39.604,2.747,79.249,4.665,118.949,5.052c11.329,0.11,22.671,0.281,34,0.163c10.453-0.108,22.493,0.22,32.397-3.389
			c1.396-0.509,1.432-2.382,0-2.879c-8.887-3.084-19.074-2.712-28.397-3.05c-9.985-0.363-20.007-0.173-30-0.272
			c-19.665-0.194-39.327-0.502-58.992-0.688c-39.661-0.374-79.275-1.174-118.886-3.255c-22.621-1.188-45.192-2.661-67.833-3.379
			C1101.148,1665.927,1101.248,1668.146,1102.705,1668.332z"/>
	</g>
	<path style="fill:#00ADEA;" d="M922.249,186.739c-1.535,5.084-3.003,10.187-4.487,15.286l717.057,39.191l51.61,1370.527V186.739
		H922.249z"/>
	<rect x="711.47" y="1373.765" style="fill:#0067B2;" width="162.358" height="34.406"/>
	<rect x="711.47" y="1437.56" style="fill:#0067B2;" width="297.259" height="34.406"/>
	<rect x="711.47" y="1501.355" style="fill:#0067B2;" width="331.88" height="34.407"/>
	<polygon style="fill:#32BEF0;" points="884.649,338.701 884.638,338.701 774.656,338.701 774.656,338.701 774.656,665.564 
		858.946,665.564 1551.67,665.564 1551.67,338.701 	"/>
	<path style="fill:#00ABE9;" d="M858.972,665.563c-4.266-109.818,4.83-219.443,25.666-326.862H774.656v326.862H858.972z"/>
	<path style="fill:#00ABE9;" d="M596.889,420.895H434.891c0,38.39,0,90.242,0,151.389h161.997V420.895z"/>
	<path style="fill:#00ABE9;" d="M596.889,599.809H434.891c0,9.009,0,18.182,0,27.526h161.997V599.809z"/>
	<path style="fill:#0067B2;" d="M596.889,186.17v234.724v151.389v27.525v27.526v985.299c6.977-0.582,14.142-0.89,21.504-0.89
		c5.009,0,11.647,0,19.7,0V186.739l0,0c0,0-0.13-0.016-0.323-0.038c-0.11-0.013-0.235-0.027-0.406-0.045
		c-0.041-0.005-0.083-0.009-0.127-0.014c-0.219-0.023-0.48-0.051-0.78-0.081c-0.059-0.006-0.112-0.011-0.174-0.017
		c-0.358-0.035-0.76-0.073-1.218-0.115c-0.005-0.001-0.01-0.001-0.015-0.001C629.125,185.896,615.018,184.983,596.889,186.17z"/>
	<path style="fill:#0067B2;" d="M638.092,1611.743c-8.052,0-14.691,0-19.7,0c-7.362,0-14.527,0.308-21.504,0.89
		c-101.822,8.491-161.997,77.376-161.997,161.107c0,5.322,0.26,10.579,0.742,15.77c7.611,82.066,74.784,146.228,182.76,146.228
		c75.551,0,1068.036,0,1068.036,0v-34.407c-5.466,0-13.203,0-22.938,0c0,0-958.481,0-1024.005,0
		c-56.007,0-98.318-18.074-124.621-46.432c-1.461-1.575-2.874-3.182-4.236-4.82c-2.724-3.275-5.248-6.672-7.571-10.179
		c-2.582-3.899-4.887-7.947-6.964-12.105l0,0c-0.001-0.002-0.001-0.003-0.002-0.005c-0.834-1.669-1.636-3.352-2.388-5.059
		c-0.153-0.345-0.284-0.699-0.434-1.045c-4.892-11.42-7.954-23.658-9.097-36.445l0,0c-0.001-0.003,0-0.006-0.001-0.009
		c-0.276-3.089-0.434-6.211-0.485-9.359c0-0.001,0-0.001,0-0.003l0,0c-0.011-0.711-0.053-1.415-0.053-2.13
		c0-3.209,0.157-6.379,0.39-9.528c0.047-0.637,0.089-1.274,0.145-1.907c0.27-3.043,0.642-6.056,1.128-9.034
		c0.087-0.536,0.195-1.064,0.289-1.598c0.499-2.819,1.085-5.609,1.776-8.361c0.082-0.327,0.148-0.66,0.233-0.986
		c0.761-2.923,1.656-5.796,2.634-8.634c0.206-0.599,0.417-1.195,0.632-1.79c1.023-2.819,2.129-5.602,3.365-8.327
		c0.144-0.318,0.306-0.627,0.453-0.943c1.19-2.563,2.482-5.076,3.86-7.548c0.239-0.428,0.463-0.86,0.707-1.285
		c1.488-2.591,3.089-5.122,4.784-7.602c0.333-0.488,0.678-0.968,1.019-1.451c3.575-5.063,7.585-9.878,12.02-14.416
		c0.401-0.41,0.794-0.822,1.201-1.227c1.182-1.175,2.402-2.325,3.641-3.46c0,0,0,0,0,0l0,0c1.072-0.982,2.151-1.959,3.265-2.91
		c0.386-0.33,0.787-0.647,1.178-0.972c2.378-1.981,4.837-3.902,7.404-5.742c0.195-0.14,0.379-0.288,0.575-0.427
		c2.69-1.906,5.506-3.713,8.399-5.458c0.536-0.323,1.074-0.645,1.616-0.962c2.922-1.708,5.923-3.348,9.044-4.886
		c0.31-0.153,0.633-0.292,0.945-0.444c3.002-1.454,6.099-2.821,9.28-4.111c0.45-0.182,0.888-0.375,1.341-0.554
		c3.333-1.316,6.771-2.53,10.295-3.66c0.636-0.204,1.279-0.399,1.921-0.596c3.647-1.123,7.363-2.174,11.208-3.091c0,0,0,0,0,0l0,0
		c15.474-3.69,32.534-5.682,51.104-5.682c99.568,0,1041.475,0,1046.943,0v-34.406h-192.1H638.092z"/>
</g>
</svg>
